<mxfile host="app.diagrams.net" modified="2023-10-19T14:19:49.292Z" agent="Mozilla/5.0 (Windows NT 10.0; Win64; x64) AppleWebKit/537.36 (KHTML, like Gecko) Chrome/118.0.0.0 Safari/537.36" version="22.0.5" etag="X09ArfHRnEpfEGhKLL0s" type="github">
  <diagram name="Halaman-1" id="mClo232F9UVm5M79u4rd">
    <mxGraphModel>
      <root>
        <mxCell id="0" />
        <mxCell id="1" parent="0" />
      </root>
    </mxGraphModel>
  </diagram>
</mxfile>
